
<svg width="327" height="180" viewBox="0 0 327 180" fill="none" xmlns="http://www.w3.org/2000/svg">
    <rect width="327" height="2.92683" fill="black"/>
    <rect y="4.39014" width="327" height="1.46341" fill="black"/>
    <rect y="7.31689" width="327" height="4.39024" fill="black"/>
    <rect y="16.0977" width="327" height="2.92683" fill="black"/>
    <rect y="23.4146" width="327" height="1.46341" fill="black"/>
    <rect y="27.8047" width="327" height="1.46341" fill="black"/>
    <rect y="32.1953" width="327" height="2.92683" fill="black"/>
    <rect y="40.9756" width="327" height="2.92683" fill="black"/>
    <rect y="45.3657" width="327" height="1.46341" fill="black"/>
    <rect y="49.7559" width="327" height="1.46341" fill="black"/>
    <rect y="54.1465" width="327" height="1.46341" fill="black"/>
    <rect y="58.5366" width="327" height="1.46341" fill="black"/>
    <rect y="61.4634" width="327" height="5.85366" fill="black"/>
    <rect y="73.1709" width="327" height="1.46341" fill="black"/>
    <rect y="77.561" width="327" height="2.92683" fill="black"/>
    <rect y="81.9512" width="327" height="1.46341" fill="black"/>
    <rect y="84.8779" width="327" height="4.39024" fill="black"/>
    <rect y="92.1953" width="327" height="1.46341" fill="black"/>
    <rect y="96.5854" width="327" height="2.92683" fill="black"/>
    <rect y="100.976" width="327" height="1.46341" fill="black"/>
    <rect y="105.366" width="327" height="5.85366" fill="black"/>
    <rect y="114.146" width="327" height="1.46341" fill="black"/>
    <rect y="118.537" width="327" height="1.46341" fill="black"/>
    <rect y="122.927" width="327" height="1.46341" fill="black"/>
    <rect y="125.854" width="327" height="5.85366" fill="black"/>
    <rect y="133.171" width="327" height="1.46341" fill="black"/>
    <rect y="137.561" width="327" height="5.85366" fill="black"/>
    <rect y="146.341" width="327" height="1.46341" fill="black"/>
    <rect y="153.659" width="327" height="1.46341" fill="black"/>
    <rect y="156.585" width="327" height="1.46341" fill="black"/>
    <rect y="160.976" width="327" height="2.92683" fill="black"/>
    <rect y="169.756" width="327" height="1.46341" fill="black"/>
    <rect y="174.146" width="327" height="1.46341" fill="black"/>
    <rect y="177.073" width="327" height="2.92683" fill="black"/>
</svg>
