
<svg width="327" height="120" viewBox="0 0 327 120" fill="none" xmlns="http://www.w3.org/2000/svg">
    <rect y="94" width="5.99999" height="327" transform="rotate(-90 0 94)" fill="black"/>
    <rect y="73" width="3.99999" height="327" transform="rotate(-90 0 73)" fill="black"/>
    <rect y="49" width="4.99999" height="327" transform="rotate(-90 0 49)" fill="black"/>
    <rect y="99.6924" width="3.6923" height="326.812" transform="rotate(-90 0 99.6924)" fill="black"/>
    <rect y="55" width="3.99999" height="327" transform="rotate(-90 0 55)" fill="black"/>
    <rect y="107" width="3.99999" height="327" transform="rotate(-90 0 107)" fill="black"/>
    <rect y="8" width="2.99999" height="327" transform="rotate(-90 0 8)" fill="black"/>
    <rect y="68" width="2.99999" height="327" transform="rotate(-90 0 68)" fill="black"/>
    <rect y="120" width="2.99999" height="327" transform="rotate(-90 0 120)" fill="black"/>
    <rect y="42" width="2.99999" height="327" transform="rotate(-90 0 42)" fill="black"/>
    <rect y="29" width="11" height="327" transform="rotate(-90 0 29)" fill="black"/>
    <rect y="102" width="5.99999" height="327" transform="rotate(-90 0 102)" fill="black"/>
    <rect y="3" width="2.99999" height="327" transform="rotate(-90 0 3)" fill="black"/>
    <rect y="61" width="2.99999" height="327" transform="rotate(-90 0 61)" fill="black"/>
    <rect y="114" width="2.99999" height="327" transform="rotate(-90 0 114)" fill="black"/>
    <rect y="35" width="2.99999" height="327" transform="rotate(-90 0 35)" fill="black"/>
    <rect y="15" width="2.99999" height="327" transform="rotate(-90 0 15)" fill="black"/>
    <rect y="86" width="11" height="327" transform="rotate(-90 0 86)" fill="black"/>
</svg>
