
<svg width="224" height="30" viewBox="0 0 224 30" fill="none" xmlns="http://www.w3.org/2000/svg">
    <rect width="4" height="30" fill="black"/>
    <rect x="6" width="2" height="30" fill="black"/>
    <rect x="12" width="2" height="30" fill="black"/>
    <rect x="22" width="2" height="30" fill="black"/>
    <rect x="28" width="2" height="30" fill="black"/>
    <rect x="38" width="4" height="30" fill="black"/>
    <rect x="44" width="2" height="30" fill="black"/>
    <rect x="50" width="8" height="30" fill="black"/>
    <rect x="62" width="2" height="30" fill="black"/>
    <rect x="66" width="8" height="30" fill="black"/>
    <rect x="76" width="6" height="30" fill="black"/>
    <rect x="84" width="2" height="30" fill="black"/>
    <rect x="88" width="2" height="30" fill="black"/>
    <rect x="92" width="2" height="30" fill="black"/>
    <rect x="98" width="8" height="30" fill="black"/>
    <rect x="110" width="2" height="30" fill="black"/>
    <rect x="114" width="6" height="30" fill="black"/>
    <rect x="122" width="8" height="30" fill="black"/>
    <rect x="132" width="4" height="30" fill="black"/>
    <rect x="140" width="2" height="30" fill="black"/>
    <rect x="146" width="6" height="30" fill="black"/>
    <rect x="154" width="6" height="30" fill="black"/>
    <rect x="162" width="4" height="30" fill="black"/>
    <rect x="168" width="6" height="30" fill="black"/>
    <rect x="176" width="4" height="30" fill="black"/>
    <rect x="184" width="2" height="30" fill="black"/>
    <rect x="188" width="6" height="30" fill="black"/>
    <rect x="198" width="4" height="30" fill="black"/>
    <rect x="208" width="6" height="30" fill="black"/>
    <rect x="216" width="2" height="30" fill="black"/>
    <rect x="220" width="4" height="30" fill="black"/>
</svg>
