
<svg width="119" height="119" viewBox="0 0 119 119" fill="none" xmlns="http://www.w3.org/2000/svg">
    <path d="M59.5 119C92.3609 119 119 92.3609 119 59.5C119 26.6391 92.3609 0 59.5 0C26.6391 0 0 26.6391 0 59.5C0 92.3609 26.6391 119 59.5 119Z" fill="#22F55D"/>
    <mask id="mask0_112_1642" style="mask-type:luminance" maskUnits="userSpaceOnUse" x="42" y="24" width="27" height="27">
        <path fill-rule="evenodd" clip-rule="evenodd" d="M42.938 24.1241H68.1612V50.6099H42.938V24.1241Z" fill="white"/>
    </mask>
    <g mask="url(#mask0_112_1642)">
        <path fill-rule="evenodd" clip-rule="evenodd" d="M58.8184 35.498L55.9288 33.4842C55.4435 33.144 55.1515 32.727 55.0105 32.1697C54.8957 31.6613 54.959 31.2732 55.2139 30.9123C55.4525 30.5739 55.7661 30.4047 56.2415 30.3649C56.7811 30.3143 57.2963 30.4635 57.8024 30.8164L60.6857 32.8555L58.8184 35.498ZM53.3935 43.1812L50.2066 40.9585C49.6896 40.5975 49.3859 40.1751 49.2467 39.616C49.1238 39.1411 49.1789 38.771 49.4284 38.42C49.6606 38.0907 49.9716 37.9261 50.447 37.8854C50.5021 37.8809 50.5563 37.8772 50.6106 37.8763C51.0923 37.8673 51.5533 38.0211 52.0133 38.3422L55.2282 40.5831L53.3935 43.1812ZM68.1196 31.5963L68.1133 31.5601C67.9578 30.7513 67.5258 30.0683 66.8642 29.5861L61.4132 25.7459C59.5278 24.4314 57.4725 23.9121 55.3015 24.2016C53.1079 24.5038 51.3563 25.5613 50.0972 27.3444C49.1292 28.7141 48.6637 30.2321 48.7053 31.8704C46.8922 32.2847 45.4181 33.2844 44.3109 34.8521C43.0582 36.6271 42.6605 38.6399 43.1278 40.8319C43.5797 42.9904 44.7529 44.7437 46.6157 46.0427L52.3622 50.0495C52.9099 50.4312 53.5282 50.6212 54.1717 50.6095C54.3452 50.6067 54.5197 50.5886 54.695 50.557C55.5292 50.4195 56.2279 49.9816 56.716 49.2905L67.5927 33.8878C68.0699 33.212 68.2515 32.4195 68.1196 31.5963Z" fill="#111111"/>
    </g>
    <mask id="mask1_112_1642" style="mask-type:luminance" maskUnits="userSpaceOnUse" x="34" y="42" width="52" height="35">
        <path fill-rule="evenodd" clip-rule="evenodd" d="M34.1036 42.1606H85.3444V76.5515H34.1036V42.1606Z" fill="white"/>
    </mask>
    <g mask="url(#mask1_112_1642)">
        <path fill-rule="evenodd" clip-rule="evenodd" d="M84.7833 57.7765C85.1846 57.2039 85.3726 56.5661 85.341 55.8776C85.3157 55.1838 85.0771 54.5577 84.6297 54.0159C84.6251 54.0095 84.6197 54.0041 84.6152 53.9987C84.1759 53.4839 83.6183 53.1383 82.9567 52.971C82.9467 52.9692 82.9377 52.9674 82.9269 52.9646C82.2526 52.8118 81.5883 52.8724 80.952 53.1447L69.0684 58.3709L69.0594 58.3917L69.0549 58.3609L69.9325 45.4777C69.9732 44.7911 69.8032 44.1488 69.4282 43.5716C69.4218 43.5635 69.4164 43.5553 69.411 43.5472C69.0269 42.9863 68.509 42.5837 67.8727 42.3494C67.8654 42.3467 67.8582 42.3431 67.8519 42.3413C67.1849 42.1097 66.5124 42.1006 65.8472 42.315C65.1856 42.5195 64.646 42.913 64.242 43.4848L46.272 68.9237C45.7541 69.6565 45.0708 70.088 44.1833 70.2436C43.2957 70.3974 42.5103 70.2255 41.7809 69.718C41.0425 69.2023 40.6086 68.5229 40.4532 67.6418C40.2977 66.7597 40.4731 65.9754 40.991 65.2408L48.4476 54.6835C48.9365 53.9896 49.1182 53.1836 48.97 52.3486C48.8226 51.5136 48.3771 50.8161 47.6793 50.3303C46.9834 49.8436 46.1699 49.6636 45.3312 49.8101C44.4906 49.9567 43.7892 50.3999 43.2993 51.0929L35.8437 61.6521C34.3406 63.7798 33.8073 66.1582 34.2592 68.721C34.7121 71.283 36.0262 73.3393 38.1683 74.8329C39.8603 76.0126 41.7122 76.5861 43.6934 76.5499C44.2095 76.5409 44.7346 76.4902 45.2688 76.397C47.8474 75.9474 49.9163 74.6411 51.4203 72.5134L62.9233 56.1934C62.7832 58.218 62.644 60.2426 62.5039 62.2672C62.4 63.7554 62.6431 65.2164 64.1055 66.0062C65.7369 66.8864 67.2852 65.9293 68.7855 65.2779C70.1024 64.7071 73.0308 63.4351 73.1772 63.3709L68.6988 69.7135C68.2107 70.4037 68.0308 71.2025 68.1754 72.023C68.3219 72.858 68.7666 73.5555 69.4625 74.0404C70.0147 74.4258 70.642 74.6176 71.3 74.6049C71.4681 74.6022 71.638 74.5868 71.8088 74.5561C72.6349 74.4122 73.3562 73.9907 73.8434 73.3013L84.7833 57.7765Z" fill="#111111"/>
    </g>
    <path fill-rule="evenodd" clip-rule="evenodd" d="M61.2827 83.0445C60.7458 83.1051 60.2433 82.9758 59.7489 82.651L56.8205 80.6092L58.7104 77.935L61.5602 79.9225C62.0763 80.2817 62.3809 80.7051 62.5164 81.2533C62.6385 81.7418 62.5833 82.1136 62.3375 82.4601C62.0943 82.8048 61.7645 82.9866 61.2827 83.0445ZM68.6516 80.0573C68.1997 77.8979 67.022 76.142 65.1511 74.8384L59.7417 71.066C59.0466 70.5811 58.2395 70.4056 57.4089 70.5585C56.5746 70.696 55.876 71.1338 55.3879 71.825L44.4561 87.3046C43.968 87.9966 43.7918 88.7972 43.9463 89.6232C44.0837 90.4519 44.5239 91.1466 45.2198 91.6306C45.7721 92.0169 46.4002 92.2087 47.0582 92.196C47.2254 92.1924 47.3944 92.1779 47.5653 92.1481C48.3914 92.0033 49.0855 91.5637 49.5727 90.8725L53.2296 85.6943L55.9176 87.5678L56.3225 87.8501C58.1753 89.0533 60.1954 89.4974 62.3266 89.17C64.5067 88.8334 66.2366 87.7795 67.4685 86.038C68.7203 84.2631 69.1189 82.2502 68.6516 80.0573Z" fill="#111111"/>
</svg>
