
<svg width="271" height="30" viewBox="0 0 271 30" fill="none" xmlns="http://www.w3.org/2000/svg">
    <rect x="39" width="10.1465" height="39" transform="rotate(90 39 0)" fill="#111111"/>
    <rect x="116" width="10.1465" height="39" transform="rotate(90 116 0)" fill="#111111"/>
    <rect x="194" width="10.1465" height="39" transform="rotate(90 194 0)" fill="#111111"/>
    <rect x="271" width="10.1465" height="39" transform="rotate(90 271 0)" fill="#111111"/>
    <rect x="76.375" y="0.625" width="8.89645" height="36.75" transform="rotate(90 76.375 0.625)" stroke="#111111" stroke-width="1.25"/>
    <rect x="154.375" y="0.625" width="8.89645" height="37.75" transform="rotate(90 154.375 0.625)" stroke="#111111" stroke-width="1.25"/>
    <rect x="231.375" y="0.625" width="8.89645" height="36.75" transform="rotate(90 231.375 0.625)" stroke="#111111" stroke-width="1.25"/>
    <ellipse cx="57.6477" cy="24.3104" rx="5.68959" ry="5.64819" transform="rotate(90 57.6477 24.3104)" fill="#111111"/>
    <path d="M96.6477 29.375C93.8778 29.375 91.6245 27.1119 91.6245 24.3104C91.6245 21.509 93.8778 19.2458 96.6477 19.2458C99.4176 19.2458 101.671 21.509 101.671 24.3104C101.671 27.1119 99.4176 29.375 96.6477 29.375Z" stroke="black" stroke-width="1.25"/>
    <ellipse cx="135.648" cy="24.3104" rx="5.68959" ry="5.64819" transform="rotate(90 135.648 24.3104)" fill="#111111"/>
    <path d="M174.648 29.375C171.878 29.375 169.625 27.1119 169.625 24.3104C169.625 21.509 171.878 19.2458 174.648 19.2458C177.418 19.2458 179.671 21.509 179.671 24.3104C179.671 27.1119 177.418 29.375 174.648 29.375Z" stroke="black" stroke-width="1.25"/>
    <ellipse cx="211.648" cy="24.3104" rx="5.68959" ry="5.64819" transform="rotate(90 211.648 24.3104)" fill="#111111"/>
    <path d="M251.648 29.375C248.878 29.375 246.625 27.1119 246.625 24.3104C246.625 21.509 248.878 19.2458 251.648 19.2458C254.418 19.2458 256.671 21.509 256.671 24.3104C256.671 27.1119 254.418 29.375 251.648 29.375Z" stroke="black" stroke-width="1.25"/>
    <path d="M19.9168 29.375C16.9707 29.375 14.6247 27.0847 14.6247 24.3104C14.6247 21.5362 16.9707 19.2458 19.9168 19.2458C22.8629 19.2458 25.209 21.5362 25.209 24.3104C25.209 27.0847 22.8629 29.375 19.9168 29.375Z" fill="#FBFBFB" stroke="black" stroke-width="1.25"/>
</svg>
