
<svg width="40" height="40" viewBox="0 0 40 40" fill="none" xmlns="http://www.w3.org/2000/svg">
    <path d="M6 15L7.5 20L6 25H8L10 21.5L18 22L16 33H18L24 22H30.1462C31.3653 22 32.5677 21.7162 33.6581 21.171L33.8234 21.0883C33.9404 21.0298 34.0471 20.9529 34.1396 20.8604C34.6148 20.3852 34.6148 19.6148 34.1396 19.1396C34.0471 19.0471 33.9404 18.9702 33.8234 18.9117L33.6581 18.829C32.5677 18.2838 31.3653 18 30.1462 18H24L18 7H16L18 18L10 18.5L8 15H6Z" fill="black"/>
    <rect x="22" y="10" width="2" height="4" rx="1" transform="rotate(90 22 10)" fill="black"/>
    <rect x="22" y="28" width="2" height="4" rx="1" transform="rotate(90 22 28)" fill="black"/>
    <rect x="24" y="24" width="2" height="4" rx="1" transform="rotate(90 24 24)" fill="black"/>
    <rect x="24" y="14" width="2" height="4" rx="1" transform="rotate(90 24 14)" fill="black"/>
</svg>
