
<svg width="40" height="40" viewBox="0 0 40 40" fill="none" xmlns="http://www.w3.org/2000/svg">
    <path d="M9 15H7.5V18.5V20V21.5V25H9L10 21.5L19 23L21 33H24V23L26.9358 22.3476C27.9747 22.1167 28.9813 21.7593 29.9332 21.2834L30.3234 21.0883C30.4404 21.0298 30.5471 20.9529 30.6396 20.8604C31.1148 20.3852 31.1148 19.6148 30.6396 19.1396C30.5471 19.0471 30.4404 18.9702 30.3234 18.9117L29.9332 18.7166C28.9813 18.2407 27.9747 17.8833 26.9358 17.6524L24 17V7H21L19 17L10 18.5L9 15Z" fill="black"/>
    <rect x="32" y="23" width="1" height="6" rx="0.5" transform="rotate(-180 32 23)" fill="black"/>
    <rect x="29.5" y="20.5" width="1" height="3" rx="0.5" transform="rotate(-90 29.5 20.5)" fill="black"/>
</svg>
