
<svg width="295" height="29" viewBox="0 0 295 29" fill="none" xmlns="http://www.w3.org/2000/svg">
    <line x1="94" y1="15" y2="15" stroke="black" stroke-width="6"/>
    <line x1="295" y1="15" x2="201" y2="15" stroke="black" stroke-width="6"/>
    <path d="M92 24V5H114C115.105 5 116 5.89543 116 7V22C116 23.1046 115.105 24 114 24H92Z" fill="#111111"/>
    <path fill-rule="evenodd" clip-rule="evenodd" d="M111 4V0H127V5.36364C127 6.26738 127.733 7 128.636 7H137.5C141.642 7 145 10.3579 145 14.5C145 18.6421 141.642 22 137.5 22H128.636C127.733 22 127 22.7326 127 23.6364V29H111V25H118V4H111ZM134 12C132.895 12 132 12.8954 132 14V15C132 16.1046 132.895 17 134 17H138C139.105 17 140 16.1046 140 15V14C140 12.8954 139.105 12 138 12H134Z" fill="#111111"/>
    <path fill-rule="evenodd" clip-rule="evenodd" d="M149 0C147.895 0 147 0.89543 147 2V27C147 28.1046 147.895 29 149 29H180C181.105 29 182 28.1046 182 27V24H201V5H182V2C182 0.895431 181.105 0 180 0H149ZM159 7H153V23H159V7Z" fill="#111111"/>
</svg>
