
<svg version="1.1" id="Layer_1" xmlns="http://www.w3.org/2000/svg" xmlns:xlink="http://www.w3.org/1999/xlink" x="0px" y="0px"
     viewBox="0 0 90 270" style="enable-background:new 0 0 90 270;" xml:space="preserve">
<style type="text/css">
	.st0{fill:none;stroke:#FBFBFB;stroke-width:1.5;}
	.st1{fill-rule:evenodd;clip-rule:evenodd;fill:#FBFBFB;}
	.st2{fill:#FBFBFB;}
	.st3{fill:none;stroke:#FBFBFB;stroke-width:2;}
	.st4{fill:none;stroke:#000000;stroke-width:1.5;}
	.st5{fill-rule:evenodd;clip-rule:evenodd;}
	.st6{fill:none;stroke:#000000;stroke-width:2;}
</style>
    <rect x="45.8" y="0.8" class="st0" width="43.5" height="43.5"/>
    <path class="st1" d="M74,19.9c2-0.5,3.6-2.4,3.6-4.7c0-3.9-1.2-8.2-4.5-8.2s-4.5,4.8-4.5,8.2c0,2.2,1.4,4.1,3.3,4.6l-0.7,15.8
	c0,1,0.8,1.9,1.8,1.9s1.9-0.9,1.8-1.9L74,19.9z"/>
    <path class="st1" d="M58,7.8C58,7.3,58.3,7,58.8,7c0.4,0,0.8,0.3,0.8,0.8V15h0.9V7.8c0-0.4,0.3-0.8,0.8-0.8S62,7.3,62,7.8V15h1V7.8
	C63,7.3,63.3,7,63.8,7c0.5,0,0.8,0.3,0.8,0.8V15h1V7.8c0-0.4,0.3-0.8,0.8-0.8S67,7.3,67,7.8V15v0.2V17c0,1.7-1.3,3-3,3h-0.6
	l0.9,15.7c0,1-0.8,1.9-1.8,1.9s-1.9-0.9-1.8-1.9L61.3,20H61c-1.7,0-3-1.3-3-3v-1.8V15V7.8z"/>
    <rect x="45.8" y="45.8" class="st0" width="43.5" height="43.5"/>
    <path class="st2" d="M56,65h23c1.1,0,2,0.9,2,2v7c0,1.1-0.9,2-2,2H56c-1.1,0-2-0.9-2-2v-7C54,65.9,54.9,65,56,65z"/>
    <path class="st2" d="M58,74h2c0.6,0,1,0.4,1,1v3c0,0.6-0.4,1-1,1h-2c-0.6,0-1-0.4-1-1v-3C57,74.4,57.4,74,58,74z"/>
    <path class="st2" d="M75,74h2c0.6,0,1,0.4,1,1v3c0,0.6-0.4,1-1,1h-2c-0.6,0-1-0.4-1-1v-3C74,74.4,74.4,74,75,74z"/>
    <path class="st1" d="M56,66.4l2.7-8.1c0.3-0.8,1-1.4,1.9-1.4h13.8c0.9,0,1.6,0.6,1.9,1.4l2.7,8.1H56z M58,65l2.2-6.4h14.6L77,65H58z
	"/>
    <circle class="st2" cx="59.1" cy="71.1" r="2.1"/>
    <circle class="st2" cx="76.1" cy="71.1" r="2.1"/>
    <rect x="45.8" y="90.8" class="st0" width="43.5" height="43.5"/>
    <path class="st1" d="M63,99c-3.9,0-7,3.1-7,7v14c0,1.1,0.9,2,2,2h19c1.1,0,2-0.9,2-2v-14c0-3.9-3.1-7-7-7H63z M58.7,112.3h17.7v-6.6
	c0-2.2-1.8-4-4-4h-9.7c-2.2,0-4,1.8-4,4C58.7,105.7,58.7,112.3,58.7,112.3z M62.2,117.6c0,1-0.8,1.8-1.8,1.8s-1.8-0.8-1.8-1.8
	s0.8-1.8,1.8-1.8C61.4,115.8,62.2,116.6,62.2,117.6z M74.6,119.3c1,0,1.8-0.8,1.8-1.8s-0.8-1.8-1.8-1.8s-1.8,0.8-1.8,1.8
	C72.8,118.6,73.6,119.3,74.6,119.3z"/>
    <rect x="56" y="125" class="st2" width="23" height="2"/>
    <rect x="66" y="101" class="st2" width="2" height="13"/>
    <rect x="45.8" y="180.8" class="st0" width="43.5" height="43.5"/>
    <path class="st2" d="M56,196h20v7c0,4.4-3.6,8-8,8h-4c-4.4,0-8-3.6-8-8V196z"/>
    <rect x="55" y="213" class="st2" width="25" height="2"/>
    <circle class="st3" cx="76" cy="202" r="3"/>
    <path class="st3" d="M62,194.5l0.5-1.3c0.3-0.7,0.1-1.5-0.5-1.9l0,0c-0.6-0.4-0.8-1.2-0.5-1.9L62,188"/>
    <path class="st3" d="M66,194.5l0.5-1.3c0.3-0.7,0.1-1.5-0.5-1.9l0,0c-0.6-0.4-0.8-1.2-0.5-1.9L66,188"/>
    <path class="st3" d="M70,194.5l0.5-1.3c0.3-0.7,0.1-1.5-0.5-1.9l0,0c-0.6-0.4-0.8-1.2-0.5-1.9L70,188"/>
    <rect x="45.8" y="135.8" class="st0" width="43.5" height="43.5"/>
    <rect x="54" y="167" class="st2" width="27" height="2"/>
    <path class="st2" d="M52,155.3l4.5,6.7l24.1-6.7c1.3-0.4,2-1.7,1.6-3c-0.4-1.2-1.6-1.8-2.8-1.5l-8.5,2.4l-9.1-8.1l-3,0.7l5.3,9.6
	l-6.8,2.2l-2.3-3L52,155.3z"/>
    <rect x="45.8" y="225.8" class="st0" width="43.5" height="43.5"/>
    <path class="st3" d="M59,238v18h18"/>
    <path class="st3" d="M75,240l-16,16"/>
    <rect x="0.8" y="0.8" class="st4" width="43.5" height="43.5"/>
    <path class="st5" d="M29,19.9c2-0.5,3.6-2.4,3.6-4.7c0-3.9-1.2-8.2-4.5-8.2s-4.5,4.8-4.5,8.2c0,2.2,1.4,4.1,3.3,4.6l-0.7,15.8
	c0,1,0.8,1.9,1.8,1.9s1.9-0.9,1.8-1.9L29,19.9z"/>
    <path class="st5" d="M13,7.8C13,7.3,13.3,7,13.8,7c0.4,0,0.8,0.3,0.8,0.8V15h0.9V7.8c0-0.4,0.3-0.8,0.8-0.8C16.8,7,17,7.3,17,7.8V15
	h1V7.8C18,7.3,18.3,7,18.8,7s0.8,0.3,0.8,0.8V15h1V7.8c0-0.4,0.3-0.8,0.8-0.8S22,7.3,22,7.8V15v0.2V17c0,1.7-1.3,3-3,3h-0.6
	l0.9,15.7c0,1-0.8,1.9-1.8,1.9s-1.9-0.9-1.8-1.9L16.3,20H16c-1.7,0-3-1.3-3-3v-1.8V15V7.8z"/>
    <rect x="0.8" y="45.8" class="st4" width="43.5" height="43.5"/>
    <path d="M11,65h23c1.1,0,2,0.9,2,2v7c0,1.1-0.9,2-2,2H11c-1.1,0-2-0.9-2-2v-7C9,65.9,9.9,65,11,65z"/>
    <path d="M13,74h2c0.6,0,1,0.4,1,1v3c0,0.6-0.4,1-1,1h-2c-0.6,0-1-0.4-1-1v-3C12,74.4,12.4,74,13,74z"/>
    <path d="M30,74h2c0.6,0,1,0.4,1,1v3c0,0.6-0.4,1-1,1h-2c-0.6,0-1-0.4-1-1v-3C29,74.4,29.4,74,30,74z"/>
    <path class="st5" d="M11,66.4l2.7-8.1c0.3-0.8,1-1.4,1.9-1.4h13.8c0.9,0,1.6,0.6,1.9,1.4l2.7,8.1H11z M13,65l2.2-6.4h14.6L32,65H13z
	"/>
    <circle class="st2" cx="14.1" cy="71.1" r="2.1"/>
    <circle class="st2" cx="31.1" cy="71.1" r="2.1"/>
    <rect x="0.8" y="90.8" class="st4" width="43.5" height="43.5"/>
    <path class="st5" d="M18,99c-3.9,0-7,3.1-7,7v14c0,1.1,0.9,2,2,2h19c1.1,0,2-0.9,2-2v-14c0-3.9-3.1-7-7-7H18z M13.7,112.3h17.7v-6.6
	c0-2.2-1.8-4-4-4h-9.7c-2.2,0-4,1.8-4,4C13.7,105.7,13.7,112.3,13.7,112.3z M17.2,117.6c0,1-0.8,1.8-1.8,1.8s-1.8-0.8-1.8-1.8
	s0.8-1.8,1.8-1.8C16.4,115.8,17.2,116.6,17.2,117.6z M29.6,119.3c1,0,1.8-0.8,1.8-1.8s-0.8-1.8-1.8-1.8s-1.8,0.8-1.8,1.8
	C27.8,118.6,28.6,119.3,29.6,119.3z"/>
    <rect x="11" y="125" width="23" height="2"/>
    <rect x="21" y="101" width="2" height="13"/>
    <rect x="0.8" y="180.8" class="st4" width="43.5" height="43.5"/>
    <path d="M11,196h20v7c0,4.4-3.6,8-8,8h-4c-4.4,0-8-3.6-8-8V196z"/>
    <rect x="10" y="213" width="25" height="2"/>
    <circle class="st6" cx="31" cy="202" r="3"/>
    <path class="st6" d="M17,194.5l0.5-1.3c0.3-0.7,0.1-1.5-0.5-1.9l0,0c-0.6-0.4-0.8-1.2-0.5-1.9L17,188"/>
    <path class="st6" d="M21,194.5l0.5-1.3c0.3-0.7,0.1-1.5-0.5-1.9l0,0c-0.6-0.4-0.8-1.2-0.5-1.9L21,188"/>
    <path class="st6" d="M25,194.5l0.5-1.3c0.3-0.7,0.1-1.5-0.5-1.9l0,0c-0.6-0.4-0.8-1.2-0.5-1.9L25,188"/>
    <rect x="0.8" y="135.8" class="st4" width="43.5" height="43.5"/>
    <rect x="9" y="167" width="27" height="2"/>
    <path d="M7,155.3l4.5,6.7l24.1-6.7c1.3-0.4,2-1.7,1.6-3c-0.4-1.2-1.6-1.8-2.8-1.5l-8.5,2.4l-9.1-8.1l-3,0.7l5.3,9.6l-6.8,2.2l-2.3-3
	L7,155.3z"/>
    <rect x="0.8" y="225.8" class="st4" width="43.5" height="43.5"/>
    <path class="st6" d="M14,238v18h18"/>
    <path class="st6" d="M30,240l-16,16"/>
</svg>
