
<svg version="1.1" id="Layer_1" xmlns="http://www.w3.org/2000/svg" xmlns:xlink="http://www.w3.org/1999/xlink" x="0px" y="0px"
     viewBox="0 0 40 320" style="enable-background:new 0 0 40 320;" xml:space="preserve">
<style type="text/css">
	.st0{fill:#FFFFFF;}
	.st1{fill:#FEFEFE;}
	.st2{clip-path:url(#SVGID_00000178187880122631187940000006814981106815745202_);}
	.st3{fill-rule:evenodd;clip-rule:evenodd;fill:#FBFBFB;}
</style>
    <rect width="40" height="40"/>
    <path class="st0" d="M20,11.8c2.7,0,3,0,4,0.1c1,0,1.5,0.2,1.9,0.3c0.5,0.2,0.8,0.4,1.2,0.7c0.4,0.4,0.6,0.7,0.7,1.2
	c0.1,0.4,0.3,0.9,0.3,1.9c0,1.1,0.1,1.4,0.1,4c0,2.7,0,3-0.1,4c0,1-0.2,1.5-0.3,1.9c-0.2,0.5-0.4,0.8-0.7,1.2
	c-0.4,0.4-0.7,0.6-1.2,0.7c-0.4,0.1-0.9,0.3-1.9,0.3c-1.1,0-1.4,0.1-4,0.1s-3,0-4-0.1c-1,0-1.5-0.2-1.9-0.3
	c-0.5-0.2-0.8-0.4-1.2-0.7c-0.4-0.4-0.6-0.7-0.7-1.2c-0.1-0.4-0.3-0.9-0.3-1.9c0-1.1-0.1-1.4-0.1-4c0-2.7,0-3,0.1-4
	c0-1,0.2-1.5,0.3-1.9c0.2-0.5,0.4-0.8,0.7-1.2c0.4-0.4,0.7-0.6,1.2-0.7c0.4-0.1,0.9-0.3,1.9-0.3C17,11.8,17.3,11.8,20,11.8z M20,10
	c-2.7,0-3.1,0-4.1,0.1c-1.1,0-1.8,0.2-2.4,0.5c-0.7,0.3-1.2,0.6-1.8,1.2c-0.6,0.6-0.9,1.1-1.2,1.8c-0.2,0.6-0.4,1.4-0.5,2.4
	S10,17.3,10,20s0,3.1,0.1,4.1c0,1.1,0.2,1.8,0.5,2.4c0.3,0.7,0.6,1.2,1.2,1.8c0.6,0.6,1.1,0.9,1.8,1.2c0.6,0.2,1.4,0.4,2.4,0.5
	c1.1,0,1.4,0.1,4.1,0.1s3.1,0,4.1-0.1c1.1,0,1.8-0.2,2.4-0.5c0.7-0.3,1.2-0.6,1.8-1.2c0.6-0.6,0.9-1.1,1.2-1.8
	c0.2-0.6,0.4-1.4,0.5-2.4c0-1.1,0.1-1.4,0.1-4.1s0-3.1-0.1-4.1c0-1.1-0.2-1.8-0.5-2.4c-0.3-0.7-0.6-1.2-1.2-1.8
	c-0.6-0.6-1.1-0.9-1.8-1.2c-0.6-0.2-1.4-0.4-2.4-0.5C23.1,10,22.7,10,20,10z"/>
    <path class="st0" d="M20,15c-2.8,0-5,2.2-5,5s2.2,5,5,5s5-2.2,5-5S22.8,15,20,15z M20,23.2c-1.8,0-3.2-1.5-3.2-3.2s1.5-3.2,3.2-3.2
	s3.2,1.5,3.2,3.2S21.8,23.2,20,23.2z"/>
    <path class="st0" d="M25.5,16c0.8,0,1.5-0.7,1.5-1.5S26.3,13,25.5,13S24,13.7,24,14.5S24.7,16,25.5,16z"/>
    <rect y="40" width="40" height="40"/>
    <path class="st0" d="M24.8,61.3l0.6-4h-3.6v-2.6c0-1.1,0.5-2.1,2.1-2.1h1.6v-3.4c0,0-1.5-0.3-2.9-0.3c-2.9,0-4.9,1.9-4.9,5.3v3h-3.3
	v4h3.3V71c1.7,0,2.2,0,4,0v-9.7H24.8L24.8,61.3z"/>
    <rect y="80" width="40" height="40"/>
    <path class="st0" d="M29,94.9C29,94.8,29,94.8,29,94.9c-0.3-0.1-0.6-0.1-0.8-0.2c-0.8-0.1-3.5-1.5-4-3.8c0,0-0.1-0.6-0.1-0.8
	c0-0.1,0-0.1-0.1-0.1c0,0,0,0-0.1,0c-1.1,0-2.1,0-3.2,0c-0.2,0-0.2,0-0.2,0.2c0,4.5,0,8.9,0,13.4c0,0.2,0,0.3,0,0.5
	c-0.2,0.9-0.6,1.5-1.4,2c-0.7,0.4-1.4,0.5-2.2,0.4c-0.2,0-0.5-0.1-0.7-0.2c0,0,0,0-0.1,0c-0.1-0.1-0.2-0.1-0.2-0.2
	c-1-0.7-1.4-1.6-1.3-2.7c0.1-1.2,0.8-2,2-2.4c0.3-0.1,0.7-0.2,1.1-0.2c0.2,0,0.5,0,0.7,0.1c0.1,0,0.1,0,0.1-0.1c0,0,0-0.1,0-0.1
	c0-0.8,0-2.6,0-2.6c0-0.2,0-0.5,0-0.7c0-0.1,0-0.1-0.1-0.1c-0.4,0-0.9-0.1-1.3,0c-0.6,0-1.2,0.2-1.7,0.4c-0.9,0.3-1.7,0.8-2.4,1.4
	c-0.6,0.6-1,1.2-1.4,1.9c-0.3,0.7-0.5,1.4-0.6,2.2c0,0.3,0,0.7,0,1c0,0.5,0.1,0.9,0.3,1.3c0.4,1.2,1.2,2.3,2.2,3.1
	c0.1,0.1,0.2,0.2,0.3,0.2c0.1,0,0.1,0.1,0.2,0.1c0.2,0.1,0.4,0.2,0.5,0.3c1.2,0.6,2.4,0.8,3.7,0.6c1.7-0.2,3.1-0.9,4.2-2.2
	c1-1.2,1.6-2.6,1.6-4.1c0-2.2,0-4.5,0-6.7c0-0.1,0-0.1,0-0.2c0,0,0.1,0,0.1,0.1c0.9,0.5,1.8,0.9,2.8,1.2c0.6,0.1,1.2,0.2,1.8,0.2
	c0.2,0,0.2,0,0.2-0.2C29,97.2,29,95.1,29,94.9L29,94.9z"/>
    <rect y="120" width="40" height="40"/>
    <path class="st1" d="M21,138.2c0.3-0.3,0.5-0.6,0.8-0.9c0.9-0.8,1.9-1.3,3.1-1.3c0.7,0,1.3,0.1,2,0.2c1.5,0.4,2.3,1.5,2.7,2.9
	c0.3,1.1,0.4,2.2,0.4,3.4c0,2.4,0,4.8,0,7.2c0,0.2-0.1,0.3-0.3,0.3c-1.2,0-2.4,0-3.6,0c-0.2,0-0.3-0.1-0.3-0.3c0-2.3,0-4.6,0-6.8
	c0-0.6,0-1.1-0.2-1.7c-0.3-1-1-1.5-2.1-1.5c-1.4,0.1-2.2,0.8-2.4,2.3c0,0.4-0.1,0.7-0.1,1.1c0,2.2,0,4.4,0,6.6
	c0,0.2-0.1,0.3-0.3,0.3c-1.2,0-2.4,0-3.7,0c-0.2,0-0.3-0.1-0.3-0.3c0-4.4,0-8.8,0-13.1c0-0.2,0.1-0.3,0.3-0.3c1.2,0,2.3,0,3.5,0
	c0.2,0,0.3,0.1,0.3,0.3C21,137.1,21,137.7,21,138.2L21,138.2z"/>
    <path class="st1" d="M14,143.5c0,2.1,0,4.1,0,6.2c0,0.2-0.1,0.3-0.3,0.3c-1.2,0-2.3,0-3.5,0c-0.2,0-0.2,0-0.2-0.2
	c0-4.2,0-8.4,0-12.5c0-0.2,0-0.2,0.2-0.2c1.2,0,2.3,0,3.5,0c0.2,0,0.3,0.1,0.3,0.3C14,139.4,14,141.4,14,143.5L14,143.5z"/>
    <path class="st1" d="M15,132.5c0,1.4-1.1,2.5-2.5,2.5c-1.4,0-2.5-1.1-2.5-2.5c0-1.4,1.1-2.5,2.5-2.5C13.9,130,15,131.1,15,132.5
	L15,132.5z"/>
    <rect y="160" width="40" height="40"/>
    <g>
	<defs>
		<rect id="SVGID_1_" x="10" y="171" width="20" height="18"/>
	</defs>
        <clipPath id="SVGID_00000098909763337604897830000006173544081000862102_">
		<use xlink:href="#SVGID_1_"  style="overflow:visible;"/>
	</clipPath>
        <g style="clip-path:url(#SVGID_00000098909763337604897830000006173544081000862102_);">
		<path class="st0" d="M30,175.2c-0.1,2-1.4,4.8-4.1,8.3c-2.7,3.7-5,5.5-6.9,5.5c-1.2,0-2.2-1.1-3-3.4c-0.5-2.1-1.1-4.1-1.6-6.2
			c-0.6-2.2-1.2-3.4-1.9-3.4c-0.1,0-0.7,0.3-1.6,1l-0.9-1.3c1-0.9,2-1.8,2.9-2.7c1.3-1.2,2.3-1.8,3-1.9c1.6-0.2,2.5,1,2.9,3.3
			c0.4,2.6,0.7,4.1,0.8,4.8c0.4,2.1,0.9,3.2,1.5,3.2c0.4,0,1-0.7,1.9-2.1c0.8-1.4,1.3-2.4,1.3-3.1c0.1-1.2-0.3-1.8-1.3-1.8
			c-0.5,0-1,0.1-1.5,0.3c1-3.4,2.9-5,5.6-4.9C29.1,171.1,30.1,172.5,30,175.2L30,175.2z"/>
	</g>
</g>
    <rect y="200" width="40" height="40"/>
    <path class="st0" d="M29.6,215.2c-0.2-0.9-0.9-1.5-1.8-1.8C26.3,213,20,213,20,213s-6.3,0-7.8,0.4c-0.9,0.2-1.5,0.9-1.8,1.8
	C10,216.7,10,220,10,220s0,3.3,0.4,4.8c0.2,0.9,0.9,1.5,1.8,1.8C13.7,227,20,227,20,227s6.3,0,7.8-0.4c0.9-0.2,1.5-0.9,1.8-1.8
	C30,223.3,30,220,30,220S30,216.7,29.6,215.2z M18,223v-6l5.2,3L18,223z"/>
    <rect y="240" width="40" height="40"/>
    <path class="st3" d="M20,249c-6.1,0-11,5-11,11.3c0,5,3.2,9.2,7.5,10.7c0.5,0.1,0.7-0.2,0.7-0.5c0-0.3,0-1.2,0-2.1
	c-3.1,0.7-3.7-1.3-3.7-1.3c-0.5-1.3-1.2-1.6-1.2-1.6c-1-0.7,0.1-0.7,0.1-0.7c1.1,0.1,1.7,1.2,1.7,1.2c1,1.7,2.6,1.2,3.2,0.9
	c0.1-0.7,0.4-1.2,0.7-1.5c-2.4-0.3-5-1.2-5-5.6c0-1.2,0.4-2.2,1.1-3c-0.1-0.3-0.5-1.4,0.1-3c0,0,0.9-0.3,3,1.2
	c0.9-0.2,1.8-0.4,2.8-0.4s1.9,0.1,2.8,0.4c2.1-1.5,3-1.2,3-1.2c0.6,1.5,0.2,2.7,0.1,3c0.7,0.8,1.1,1.8,1.1,3c0,4.3-2.6,5.3-5,5.6
	c0.4,0.4,0.7,1,0.7,2.1c0,1.5,0,2.7,0,3.1c0,0.3,0.2,0.7,0.7,0.5c4.4-1.5,7.5-5.7,7.5-10.7C31,254,26.1,249,20,249L20,249z"/>
    <rect y="280" width="40" height="40"/>
    <path class="st0" d="M16.3,308c7.5,0,11.7-6.2,11.7-11.5c0-0.2,0-0.3,0-0.5c0.8-0.6,1.5-1.3,2-2.1c-0.7,0.3-1.5,0.5-2.4,0.6
	c0.8-0.5,1.5-1.3,1.8-2.2c-0.8,0.5-1.7,0.8-2.6,1c-0.7-0.8-1.8-1.3-3-1.3c-2.3,0-4.1,1.8-4.1,4c0,0.3,0,0.6,0.1,0.9
	c-3.4-0.2-6.4-1.8-8.5-4.2c-0.4,0.6-0.6,1.3-0.6,2c0,1.4,0.7,2.6,1.8,3.4c-0.7,0-1.3-0.2-1.9-0.5c0,0,0,0,0,0.1c0,2,1.4,3.6,3.3,4
	c-0.3,0.1-0.7,0.1-1.1,0.1c-0.3,0-0.5,0-0.8-0.1c0.5,1.6,2,2.8,3.8,2.8c-1.4,1.1-3.2,1.7-5.1,1.7c-0.3,0-0.7,0-1-0.1
	C11.8,307.3,14,308,16.3,308"/>
</svg>
